<svg xmlns="http://www.w3.org/2000/svg" viewBox="0 0 56.88 53.91"><defs><style>.cls-1{fill:none;stroke:#1d1d1b;stroke-miterlimit:10;}.cls-2{fill:#a7c6ea;}.cls-3{fill:#e2eaf8;}.cls-4{fill:#f4a5a7;}.cls-5{fill:#7bc9d0;}.cls-6{fill:#426eb5;}.cls-7{fill:#486fb5;}</style></defs><title>RobotSvg</title><g id="ch_azul_claro_copia_2" data-name="ch azul claro copia 2"><path class="cls-1" d="M200.7,350.16" transform="translate(-178.68 -315.87)"/><path class="cls-1" d="M222.84,352.14" transform="translate(-178.68 -315.87)"/><g id="color_azul_cl" data-name="color azul cl"><path class="cls-1" d="M200.7,350.16" transform="translate(-178.68 -315.87)"/><path class="cls-1" d="M222.84,352.14" transform="translate(-178.68 -315.87)"/><path class="cls-2" d="M196,369.78c14.58-9.18,14.94-9.9,14.94-9.9s5.94,2.52,11.88-6.48V332.16s-1.08-8.64-6.48-8.46H185s-5.58,1.44-6.12,5.94,0,23.58,0,23.58,2,5.76,6.3,6.48a51,51,0,0,0,10.44.18Z" transform="translate(-178.68 -315.87)"/></g></g><g id="cuerpo_Robot_copia" data-name="cuerpo Robot copia"><path class="cls-1" d="M217.62,339.09" transform="translate(-178.68 -315.87)"/><path class="cls-1" d="M184.5,337.56" transform="translate(-178.68 -315.87)"/><path class="cls-1" d="M184.5,341.34" transform="translate(-178.68 -315.87)"/><path class="cls-1" d="M201,336.21" transform="translate(-178.68 -315.87)"/><path class="cls-1" d="M213.39,340.53" transform="translate(-178.68 -315.87)"/><g id="cuerpo_Robot" data-name="cuerpo Robot"><path class="cls-1" d="M217.62,339.09" transform="translate(-178.68 -315.87)"/><path class="cls-3" d="M187.56,335l.09-2s.36-3.78,3.87-3.69l3.51.09,11.79-.09h3.33a3.61,3.61,0,0,1,4.14,2.83c.72,3.38,0,12.38,0,12.38l-.09,2.25s.36,1.08-2,2.79l-6.84.09,3.42,2.52.09,3.24s-.45,2.7-1.71,2.43-12.78,0-12.78,0h0a11.19,11.19,0,0,1-1-2.36,19.73,19.73,0,0,1,0-3.33l2.61-2.52h-5.13s-2.79-.45-3.15-4.41Z" transform="translate(-178.68 -315.87)"/><path class="cls-1" d="M205.38,349.62" transform="translate(-178.68 -315.87)"/><path class="cls-1" d="M196,349.62" transform="translate(-178.68 -315.87)"/><path class="cls-1" d="M184.5,337.56" transform="translate(-178.68 -315.87)"/><path class="cls-1" d="M184.5,341.34" transform="translate(-178.68 -315.87)"/><path class="cls-1" d="M201,336.21" transform="translate(-178.68 -315.87)"/><path class="cls-1" d="M213.39,340.53" transform="translate(-178.68 -315.87)"/><path class="cls-1" d="M204.26,349.62" transform="translate(-178.68 -315.87)"/><path class="cls-1" d="M194.9,349.62" transform="translate(-178.68 -315.87)"/></g></g><g id="Orejas_Sombrero_copia" data-name="Orejas Sombrero copia"><path class="cls-1" d="M164.43,332.52" transform="translate(-178.68 -315.87)"/><g id="Orejas_Sombrero" data-name="Orejas Sombrero"><path class="cls-4" d="M187.56,344.3a4.44,4.44,0,0,1-2.89-3.46v-1.48s-.9-2.77,2.9-4Z" transform="translate(-178.68 -315.87)"/><path class="cls-4" d="M214.29,344.49l.32-9.64s1.66-.35,3,4.24C217.62,339.09,218.07,343.54,214.29,344.49Z" transform="translate(-178.68 -315.87)"/><path class="cls-4" d="M195,329.25h13s-2.72-3.75-6.82-4.29S195,329.25,195,329.25Z" transform="translate(-178.68 -315.87)"/><path class="cls-1" d="M164.43,332.52" transform="translate(-178.68 -315.87)"/></g></g><g id="rostro_copia" data-name="rostro copia"><g id="rostro"><path class="cls-5" d="M193.23,346.2c-1.71.45-1.62-1.49-1.62-1.49v-9.85a1.3,1.3,0,0,1,1.62-1.44H208.8S210,333,210,334.86v9.85s-.27,1.36-.9,1.56S193.23,346.2,193.23,346.2Z" transform="translate(-178.68 -315.87)"/></g><rect class="cls-6" x="16.15" y="19.43" width="2.38" height="4.52" rx="1.19"/><rect class="cls-6" x="25.96" y="19.43" width="2.38" height="4.52" rx="1.19"/><path class="cls-6" d="M198.74,342.45s3.26,4.9,4.69,0" transform="translate(-178.68 -315.87)"/></g><g id="ch_azul_oscuro_copia" data-name="ch azul oscuro copia"><g id="ch_azul_oscuro" data-name="ch azul oscuro"><path class="cls-7" d="M191.61,322.8c-.09-7.29,7.65-6.93,7.65-6.93H228.6c4.86,0,6.84,6.93,6.84,6.93s.27,16,0,22.5a7.47,7.47,0,0,1-6,7.38h-6.57V332.57c0-1.81-1.87-8.49-5.2-8.56-7-.13-18.34-.31-26-.31Z" transform="translate(-178.68 -315.87)"/></g></g></svg>