<?xml version="1.0" encoding="utf-8"?>
<!-- Generator: Adobe Illustrator 24.0.2, SVG Export Plug-In . SVG Version: 6.00 Build 0)  -->
<svg version="1.1" xmlns="http://www.w3.org/2000/svg" xmlns:xlink="http://www.w3.org/1999/xlink" x="0px" y="0px"
	 viewBox="0 0 336.9 407.8" style="enable-background:new 0 0 336.9 407.8;" xml:space="preserve">
<style type="text/css">
	.st0{fill:none;}
</style>
<g id="Capa_1">
	<title>Blanco fondo trasparente</title>
</g>
<g id="cuadrado">
	<g>
		<path class="st0" d="M197,0.4c0.4,0.4,0.7,0.9,1,1.6c1.1,3.9,2,7.9,2.7,11.9c4.5,23,8.9,46,13.3,69.1c0.9,4.7,1.8,9.4,2.8,14.1
			c0.4,1.7,0,2.4-1.8,3c-15.4,5.5-32.4,7.3-46.2,7.2c-11.3,0.1-22.5-1.2-33.4-4c-5-1.2-9.8-3.4-14.8-5.1c-1.7-0.6-1.9-1.6-1.5-3.3
			c3.4-14,6.7-28,10-41.9c3.4-14.3,6.9-28.7,10.3-43c0.7-3.1,2.8-5.2,5.2-7c1.5-1.1,2.9-0.5,3.9,0.8c4.4,5.7,9,11.3,13.2,17.2
			c4.3,6.1,10.3,6.1,15,0.1c5.3-6.8,11.1-13.3,16.8-19.9c0.3-0.3,0.5-0.5,0.8-0.7H-2.1v406.9h60.2c-2.3-0.3-4.6-0.8-6.9-1.4
			c-1.2-0.4-2.4-1-3.3-1.9c-0.5-0.5-0.7-1.2-0.7-1.9c0.5-2.4,1.2-4.8,1.8-7.2c3.9,1.2,7.4,2.6,11.1,3.3c2.2,0.4,4.5,0.3,6.7-0.1
			c3.4-0.6,6.1-3.3,6.8-6.7c0.7-3.8-0.5-6.4-4.1-8.6c-1.6-1-3.5-1.6-5.2-2.5c-3.5-1.7-6.9-3.6-10.2-5.7c-7.4-5.2-8.5-15.7-3-23
			c2.7-3.6,6.7-6,11.1-6.7c6-1.2,12.2-0.7,18,1.4c1.4,0.5,1.9,1.2,1.4,2.7c-0.8,2.3-1.3,4.6-1.8,6.2c-4.8-0.6-9.3-1.5-13.7-1.6
			s-7.3,2.8-7.7,6.7c-0.3,2.8,1.2,5.5,3.7,6.7c3.6,2,7.2,3.8,10.9,5.5c5.5,2.5,9.7,6.3,11,12.4c1.6,7.5-1,15.2-8.3,19.5
			c-2.7,1.6-5.5,2.5-8.2,2.9h105.9c-1.9-0.3-3.8-0.8-5.8-1.3c-1.2-0.4-2.4-1-3.4-1.8c-0.5-0.5-0.8-1.2-0.7-1.9
			c0.5-2.5,1.2-4.9,1.9-7.6c1.2,0.4,2.3,0.8,3.4,1.4c3.9,2.5,8.2,2.6,12.5,2.5c4-0.1,7.5-2.8,8.6-6.8c1-3.9-0.9-7.3-5.2-9.5
			c-3.7-1.9-7.5-3.6-11.2-5.5c-8.4-4.4-10.9-11.5-8.9-19.4c1-4.5,4-8.3,8.1-10.3c8.4-4,16.9-3.2,25.6,0.1c-0.8,3.1-1.7,5.9-2.3,8.3
			c-4.5-0.7-8.7-1.6-12.9-1.8c-5-0.2-8.3,2.9-8.5,7c-0.3,2.4,0.9,4.8,3,6c2.8,1.7,5.7,3.3,8.6,4.7c4.5,2.1,8.9,4.1,11.8,8.6
			c4.8,7.4,2.6,18.6-4.7,23.5c-2.9,2-5.9,3.2-9,3.8h93.5c-0.8-0.1-1.5-0.1-2.3-0.2c-6-0.7-11.6-3.5-15.9-7.8
			c-4.6-4.5-7-10.3-7.8-16.7c-1.1-8.2-0.4-16.3,4-23.5c4-7,10.8-11.9,18.7-13.5c7.2-1.5,14.7-1.3,21.8,0.7c2.1,0.6,3.2,1.3,2.3,3.8
			c-0.6,1.8-1.1,3.6-1.4,5.4c-5.4-0.5-10.2-1.4-15-1.4c-11.3,0-18.2,7.6-19.4,18.3c-0.7,5.1,0,10.4,2.1,15.1
			c0.9,1.9,2.1,3.6,3.6,5.1c5.7,5.8,12.8,6.9,20.5,5.3c0.7-0.2,1.7-1.1,1.8-1.7c0.2-4.7,0.1-9.4,0.1-14.4h-10v-8.7h20.1
			c0,0.7,0.2,1.4,0.2,2.2c0,8.8,0,17.6,0,26.4c0.2,1.2-0.5,2.4-1.7,2.8c-3.8,1.6-7.7,2.5-11.7,2.9h50V0.4H197z M36,146.1
			c2.8-1.7,5.8-3.2,8.9-4.3c10-3.7,20.6-5,31.1-6.5c9.9-1.4,19.9-2.7,29.8-3.9c1.3-0.2,2.5,0.1,3.7,0.7c14.2,8.1,29.7,13.6,45.8,16
			c9.6,1.5,19.1,2,28.6,0.7c11.4-1.7,22.8-4,33.5-8.6c1.5-0.6,3-1.4,4.3-2.3c6.2-4.2,12.9-3.3,19.7-2.4c7.9,1,15.8,2,23.5,3.5
			c10.9,2.2,21.7,4.7,32.5,7.4c3.1,0.8,6,2.6,9,4l-0.2,0.9c-3.5,1.2-7,2.5-10.6,3.5c-12.6,3.8-25.3,7-37.7,11.3
			c-10.5,3.6-21.2,6.1-32,8.5c-22.7,5-45.6,5.9-68.6,4.3c-8.5-0.6-17.1-1.2-25.5-2.5c-17-2.7-34-5.4-50.9-9.1
			c-9-2-17.8-5.6-26.5-8.8c-6.1-2.3-12-5.1-18-7.7C34,149.7,33.7,147.5,36,146.1z M225.5,208.4c-0.3,0.8-0.9,1.4-1.6,1.8
			c-9.1,4-19,5.8-29,5.4c-3.3-0.1-6.5-1-9.8-1.4c-2.2-0.3-2.5-1.5-2.1-3.3c0.6-2.7,2.6-4.9,5.1-5.8c5.3-2.3,10.7-4.5,16.1-6.7
			c6.2-2.6,12.4-5.1,18.5-7.6c0.8-0.3,1.6-0.5,2.7-0.9C226.2,196.2,226.8,202.3,225.5,208.4z M155,212.9c-1.4,0.5-2.8,1-4.3,1.3
			c-8.5,1.1-17.1,0.9-25.5-0.7c-3.7-0.7-7.3-1.6-10.8-2.8c-0.9-0.3-1.7-1.1-2-2c-1.4-7-1-13.9,0.5-21.5c9.5,4.3,18.5,8.3,27.5,12.5
			c3.6,1.7,7,3.8,10.3,5.8c1,0.5,1.8,1.3,2.4,2.3C154,209.5,154.6,211.2,155,212.9z M104.2,406.9c-3,0-6.1,0-9.1-0.1
			c-0.5,0-0.9-0.8-1.3-1.2c-0.1-0.1,0-0.3,0-0.5l0-59.7h10.4V406.9z M99.6,269.5c-8.8-5.3-18.6-7.5-28.4-10.2
			c-10.9-3-22-2.8-33.2-2.7h-1.5c0.1-0.5,0.3-1,0.5-1.4c3.7-4.5,7.3-9.1,11.3-13.3c2.5-2.6,5.6-4.6,8.3-7c0.7-0.6,1.4-1.9,1.2-2.5
			c-0.3-1.1-1.1-2-2.2-2.4c-2.5-0.5-5-0.8-7.5-0.7c-6.9,0.3-13.9,0.1-20.6,1.5c-9,1.9-17.6,5.2-26.5,7.9c-0.4,0.1-0.7,0.1-1.1,0.2
			c1.2-3.4,2.2-6.6,3.4-9.7C8.2,217.2,14.1,206,22.1,196c6.4-8,13.5-15,22.9-19.3c1.3-0.6,2.5-1.5,3.8-2.2c5.8-3.1,10.8-1.6,16,1.8
			c4.7,3,9.9,5.1,14.9,7.5c1.5,0.6,2.5,1.9,2.8,3.4c4,18.2,8.4,36.2,14.7,53.7c3.3,9.3,6.9,18.5,14.1,25.6
			c6.2,6.1,12.1,12.5,18.2,18.6c6,6.2,12.8,11.5,20.4,15.7c3.1,1.6,6.3,2.8,9.3,4.1l-7.8,12.1c-1-0.8-1.9-1.6-2.7-2.5
			c-3.9-5.1-7.5-10.5-11.5-15.4c-6.7-8.2-14.7-15.4-23.6-21.2C109,275,104.3,272.3,99.6,269.5z M147.8,406.8c-0.5,0-1.3-1.1-1.5-1.8
			c-1.5-5.6-3-11.3-4.5-16.9c-1.1-4.2-3.9-6.3-8.1-6.6c-2.1-0.1-4.1,0-6.6,0v25.4c-3.3,0-6.3,0.1-9.4-0.1c-0.4,0-1-1.6-1-2.5
			c-0.1-17.5-0.1-35.1,0-52.6c0-6.1,0-6.1,6-6.5c6.8-0.5,13.6-0.8,20.3,0.6c10,2,14.3,12.3,11.8,20.7c-1.5,5.2-2.6,6.3-9.2,10.7
			c0,0.2,0,0.4,0.1,0.5c6.2,4.4,7.2,11.4,8.8,18c0.9,3.6,1.8,7.2,2.8,11.3C154.1,406.9,150.9,406.9,147.8,406.8z M245.1,407h-5.3
			c-9,0-18,0-27,0c-1.8,0-2.6-0.3-2.6-2.4c0.1-19,0-38,0.1-57.1c0-0.7,0.1-1.4,0.2-2.1h33.4v9h-22.8v15.9l21.5,0v9.1h-21.5v18.1h24
			V407z M331.2,239.7c-14.7-4.7-29.6-7.3-45.1-6.1c-1,0-2.1,0.2-3,0.6c-0.9,0.6-1.6,1.5-1.9,2.5c0.1,1,0.6,1.9,1.4,2.5
			c6.9,4.5,12.9,10.4,17.5,17.3c0.4,0.6,0.8,1.1,1.1,1.8c0.5,0.9,0.8,1.9,1.4,3.3c-1.2,0-2.1,0-3,0c-16-0.6-32,0.3-47.5,4.3
			c-10.1,2.6-20,6.6-29.7,10.6c-4.9,2-9.5,5.1-14,8.1c-11.4,7.7-21.4,17.3-29.6,28.4c-0.4,0.7-0.8,1.4-1.1,2.1
			c-1.8,3.5-4.3,5.9-8.5,6.6c-1.6,0.3-3.1,1.5-4.8,1.9c-1.1,0.1-2.1-0.1-3.1-0.6c-0.9-0.4-1.7-1.3-2.6-1.7c-2.4-1.1-2.5-2.5-1.3-4.7
			c4.8-8.6,11.9-14.5,20.6-18.9c6.3-3.2,12.4-7,18.5-10.7c3.8-2.4,7.4-5.2,11-7.8c10.6-7.8,19.9-17.3,27.3-28.1
			c7.8-11.2,14-23.4,17.5-36.6c2-8.3,3.6-16.7,4.8-25.1c0.4-2.4,1.2-3.8,3.2-4.7l14-6.4c0.4-0.1,0.8-0.3,1.2-0.5
			c4.4-4,8.3-2.2,12.6,0.6c10.5,6.9,19.6,15.7,26.8,25.9c3.3,4.5,6.7,8.9,9.5,13.7c4.1,7.1,7.7,14.4,11.5,21.7
			c0.3,0.9,0.6,1.9,0.8,2.9C335.1,241.4,333.1,240.5,331.2,239.7z"/>
		<path class="st0" d="M137.3,353.6c-2.9-0.3-5.7-0.3-8.6,0c-0.7,0.2-1.2,0.7-1.4,1.3c-0.1,5.9-0.1,11.9-0.1,18.3
			c3.6-0.2,6.9-0.2,10.1-0.6c3.2-0.4,5.9-2.6,6.9-5.6C146.2,362.1,145.2,354.7,137.3,353.6z"/>
		<path d="M36.5,150.8c6,2.6,11.9,5.4,18,7.7c8.7,3.2,17.5,6.9,26.5,8.8c16.9,3.6,33.9,6.4,50.9,9.1c8.4,1.3,17,1.9,25.5,2.5
			c23.1,1.6,46,0.7,68.6-4.3c10.8-2.4,21.5-4.8,32-8.5c12.4-4.3,25.1-7.6,37.7-11.3c3.6-1.1,7.1-2.4,10.6-3.5l0.2-0.9
			c-3-1.4-5.9-3.2-9-4c-10.8-2.7-21.6-5.3-32.5-7.4c-7.8-1.5-15.7-2.5-23.5-3.5c-6.7-0.9-13.5-1.9-19.7,2.4
			c-1.4,0.9-2.8,1.7-4.3,2.3c-10.7,4.6-22.1,7-33.5,8.6c-9.5,1.4-19,0.8-28.6-0.7c-16.1-2.4-31.7-7.9-45.8-16
			c-1.1-0.6-2.4-0.8-3.7-0.7c-10,1.2-19.9,2.5-29.8,3.9c-10.5,1.5-21.1,2.8-31.1,6.5c-3.1,1.2-6.1,2.6-8.9,4.3
			C33.7,147.5,34,149.7,36.5,150.8z"/>
		<path d="M176.6,21c-4.7,6-10.7,6.1-15-0.1c-4.2-5.9-8.7-11.5-13.2-17.2c-1-1.3-2.3-2-3.9-0.8c-2.4,1.8-4.4,3.9-5.2,7
			c-3.5,14.3-6.9,28.7-10.3,43c-3.3,13.9-6.6,27.9-10,41.9c-0.4,1.6-0.2,2.7,1.5,3.3c4.9,1.7,9.8,3.9,14.8,5.1
			c10.9,2.8,22.2,4.1,33.4,4c13.8,0.1,30.8-1.7,46.2-7.2c1.8-0.6,2.1-1.3,1.8-3c-1-4.7-1.9-9.4-2.8-14.1c-4.4-23-8.8-46-13.3-69.1
			c-0.7-4-1.6-8-2.7-11.9c-0.2-0.7-0.6-1.2-1-1.6h-2.8c-0.3,0.2-0.5,0.4-0.8,0.7C187.7,7.7,181.9,14.2,176.6,21z"/>
		<path d="M324.6,217.9c-2.8-4.8-6.2-9.2-9.5-13.7c-7.2-10.2-16.4-19-26.8-25.9c-4.3-2.8-8.1-4.7-12.6-0.6c-0.4,0.2-0.8,0.4-1.2,0.5
			l-14,6.4c-2,0.9-2.9,2.4-3.2,4.7c-1.2,8.5-2.8,16.8-4.8,25.1c-3.5,13.2-9.7,25.4-17.5,36.6c-7.5,10.8-16.7,20.3-27.3,28.1
			c-3.6,2.6-7.2,5.5-11,7.8c-6,3.8-12.2,7.5-18.5,10.7c-8.7,4.4-15.9,10.2-20.6,18.9c-1.2,2.2-1.1,3.6,1.3,4.7
			c0.9,0.4,1.7,1.3,2.6,1.7c1,0.5,2,0.7,3.1,0.6c1.7-0.4,3.1-1.6,4.8-1.9c4.1-0.6,6.6-3.1,8.5-6.6c0.3-0.7,0.7-1.4,1.1-2.1
			c8.1-11.1,18.1-20.7,29.6-28.4c4.5-3,9.1-6.1,14-8.1c9.7-4,19.5-7.9,29.7-10.6c15.5-4,31.5-5,47.5-4.3c0.9,0,1.8,0,3,0
			c-0.6-1.4-0.9-2.4-1.4-3.3c-0.3-0.6-0.7-1.2-1.1-1.8c-4.6-6.9-10.6-12.7-17.5-17.3c-0.8-0.6-1.4-1.5-1.4-2.5
			c0.3-1.1,0.9-2,1.9-2.5c0.9-0.4,2-0.7,3-0.6c15.5-1.2,30.4,1.3,45.1,6.1c2,0.8,3.9,1.7,5.8,2.7c-0.2-1-0.4-1.9-0.8-2.9
			C332.3,232.3,328.7,225,324.6,217.9z"/>
		<path d="M137.2,299.1c4.1,4.9,7.7,10.3,11.5,15.4c0.8,0.9,1.7,1.8,2.7,2.5l7.8-12.1c-3-1.3-6.3-2.5-9.3-4.1
			c-7.5-4.2-14.4-9.5-20.4-15.7c-6.2-6.1-12.1-12.5-18.2-18.6c-7.3-7.2-10.8-16.4-14.1-25.6c-6.3-17.5-10.8-35.5-14.7-53.7
			c-0.3-1.5-1.3-2.8-2.8-3.4c-5-2.4-10.3-4.5-14.9-7.5c-5.3-3.4-10.3-4.9-16-1.8c-1.3,0.7-2.5,1.6-3.8,2.2
			c-9.4,4.3-16.5,11.3-22.9,19.3c-8,10-13.9,21.2-18.7,33.1c-1.3,3.1-2.3,6.3-3.4,9.7c0.4,0,0.7-0.1,1.1-0.2
			c8.8-2.7,17.5-6,26.5-7.9c6.7-1.4,13.7-1.2,20.6-1.5c2.5-0.1,5.1,0.1,7.5,0.7c1.1,0.4,1.9,1.3,2.2,2.4c0.2,0.7-0.5,1.9-1.2,2.5
			c-2.7,2.4-5.8,4.4-8.3,7c-4,4.2-7.6,8.8-11.3,13.3c-0.3,0.4-0.4,0.9-0.5,1.4H38c11.2-0.1,22.2-0.3,33.2,2.7
			c9.8,2.7,19.6,4.9,28.4,10.2c4.7,2.8,9.4,5.6,14,8.5C122.5,283.8,130.5,290.9,137.2,299.1z"/>
		<path d="M145.9,377.6c-0.1-0.1-0.1-0.3-0.1-0.5c6.6-4.3,7.7-5.5,9.2-10.7c2.5-8.4-1.8-18.7-11.8-20.7c-6.8-1.4-13.5-1.1-20.3-0.6
			c-6,0.5-6,0.5-6,6.5c-0.1,17.6-0.1,35.1,0,52.6c0,0.9,0.6,2.5,1,2.5c3.1,0.2,6.2,0.1,9.4,0.1v-25.4c2.5,0,4.5-0.1,6.6,0
			c4.2,0.3,7,2.5,8.1,6.6c1.5,5.6,2.9,11.3,4.5,16.9c0.2,0.7,0.9,1.8,1.5,1.8c3.2,0.2,6.3,0.1,9.8,0.1c-1-4-2-7.6-2.8-11.3
			C153.1,389,152.1,382,145.9,377.6z M144.3,367.1c-1,3-3.7,5.2-6.9,5.6c-3.2,0.5-6.5,0.4-10.1,0.6c0-6.4,0-12.4,0.1-18.3
			c0.2-0.7,0.8-1.2,1.4-1.3c2.9-0.3,5.7-0.3,8.6,0C145.2,354.7,146.2,362.1,144.3,367.1z"/>
		<path d="M301.3,401.7c0-8.8,0-17.6,0-26.4c0-0.7-0.1-1.5-0.2-2.2H281v8.7h10c0,5,0.1,9.7-0.1,14.4c0,0.6-1.1,1.6-1.8,1.7
			c-7.7,1.7-14.7,0.5-20.5-5.3c-1.5-1.5-2.7-3.2-3.6-5.1c-2-4.8-2.7-10-2.1-15.1c1.2-10.8,8.1-18.3,19.4-18.3c4.8,0,9.6,0.9,15,1.4
			c0.3-1.8,0.8-3.7,1.4-5.4c1-2.5-0.1-3.2-2.3-3.8c-7.1-2-14.6-2.2-21.8-0.7c-7.9,1.6-14.7,6.5-18.7,13.5c-4.4,7.3-5.1,15.3-4,23.5
			c0.8,6.4,3.2,12.2,7.8,16.7c4.3,4.3,9.8,7.1,15.9,7.8c0.8,0.1,1.5,0.2,2.3,0.2h9.9c4-0.4,7.8-1.3,11.7-2.9
			C300.8,404.1,301.5,402.9,301.3,401.7z"/>
		<path d="M221.1,379.4h21.5v-9.1l-21.5,0v-15.9h22.8v-9h-33.4c-0.1,0.7-0.2,1.4-0.2,2.1c-0.1,19.1,0,38.1-0.1,57.1
			c0,2.1,0.8,2.4,2.6,2.4c9,0,18,0,27,0h5.3v-9.4h-24V379.4z"/>
		<path d="M84,385c-1.3-6.1-5.5-9.9-11-12.4c-3.7-1.7-7.3-3.5-10.9-5.5c-2.5-1.2-4-3.9-3.7-6.7c0.3-3.8,3.2-6.7,7.7-6.7
			s8.9,1,13.7,1.6c0.5-1.6,1-3.9,1.8-6.2c0.5-1.5,0-2.2-1.4-2.7c-5.8-2.1-12-2.6-18-1.4c-4.4,0.7-8.4,3.1-11.1,6.7
			c-5.5,7.3-4.4,17.8,3,23c3.3,2.1,6.7,4,10.2,5.7c1.7,0.9,3.5,1.5,5.2,2.5c3.5,2.1,4.7,4.8,4.1,8.6c-0.6,3.4-3.3,6.1-6.8,6.7
			c-2.2,0.5-4.5,0.5-6.7,0.1c-3.7-0.8-7.2-2.1-11.1-3.3c-0.6,2.3-1.3,4.8-1.8,7.2c-0.1,0.7,0.2,1.4,0.7,1.9c1,0.8,2.1,1.5,3.3,1.9
			c2.3,0.6,4.6,1.1,6.9,1.4h9.4c2.7-0.5,5.5-1.4,8.2-2.9C83,400.2,85.6,392.5,84,385z"/>
		<path d="M198.3,380c-2.9-4.5-7.3-6.5-11.8-8.6c-3-1.4-5.8-3-8.6-4.7c-2.1-1.2-3.3-3.6-3-6c0.2-4.1,3.5-7.2,8.5-7
			c4.2,0.1,8.3,1.1,12.9,1.8c0.6-2.3,1.5-5.2,2.3-8.3c-8.8-3.3-17.2-4.1-25.6-0.1c-4.2,2-7.2,5.8-8.1,10.3c-2,7.9,0.5,15,8.9,19.4
			c3.7,1.9,7.5,3.6,11.2,5.5c4.3,2.2,6.1,5.6,5.2,9.5c-1.1,3.9-4.6,6.6-8.6,6.8c-4.3,0.1-8.7,0-12.5-2.5c-1.1-0.6-2.2-1-3.4-1.4
			c-0.7,2.8-1.4,5.2-1.9,7.6c-0.1,0.7,0.2,1.4,0.7,1.9c1,0.8,2.1,1.5,3.4,1.8c1.9,0.5,3.8,1,5.8,1.3h11.2c3.1-0.6,6.1-1.8,9-3.8
			C200.8,398.6,203,387.4,198.3,380z"/>
		<path d="M150.8,205.5c-3.4-2-6.8-4.1-10.3-5.8c-8.9-4.2-18-8.2-27.5-12.5c-1.5,7.6-1.9,14.5-0.5,21.5c0.3,0.9,1.1,1.7,2,2
			c3.5,1.1,7.2,2.1,10.8,2.8c8.4,1.6,17,1.8,25.5,0.7c1.5-0.3,2.9-0.7,4.3-1.3c-0.5-1.7-1.1-3.4-1.8-5
			C152.6,206.9,151.8,206.1,150.8,205.5z"/>
		<path d="M222.8,190.7c-6.2,2.5-12.4,5.1-18.5,7.6c-5.4,2.2-10.7,4.4-16.1,6.7c-2.6,0.9-4.5,3.1-5.1,5.8c-0.4,1.8-0.1,3.1,2.1,3.3
			c3.3,0.4,6.5,1.2,9.8,1.4c10,0.5,19.9-1.4,29-5.4c0.8-0.3,1.4-1,1.6-1.8c1.3-6.1,0.7-12.2,0-18.7
			C224.4,190.1,223.6,190.4,222.8,190.7z"/>
		<path d="M93.9,405.1c0,0.2-0.1,0.4,0,0.5c0.4,0.4,0.8,1.2,1.3,1.2c3,0.1,6.1,0.1,9.1,0.1v-61.5H93.8L93.9,405.1z"/>
	</g>
</g>
</svg>
