<svg id="Capa_1" data-name="Capa 1" xmlns="http://www.w3.org/2000/svg" viewBox="0 0 336.93 407.82"><defs><style>.cls-1{fill:#fff;}</style></defs><title>Blanco fondo trasparente</title><path class="cls-1" d="M421.57,310.54c-3.52,1.18-7,2.46-10.59,3.53-12.57,3.78-25.31,7.05-37.7,11.34-10.51,3.64-21.24,6.08-32,8.45-22.67,5-45.58,5.94-68.64,4.34-8.53-.58-17.09-1.18-25.52-2.52-17-2.69-34-5.44-50.87-9.07-9-1.95-17.75-5.59-26.48-8.82-6.1-2.25-12-5.07-18-7.69-2.48-1.09-2.82-3.25-.49-4.69a50.34,50.34,0,0,1,8.88-4.34c10-3.69,20.57-5,31.06-6.46q14.9-2.1,29.83-3.94a6.33,6.33,0,0,1,3.67.65,131.1,131.1,0,0,0,45.85,16c9.6,1.48,19.12,2.05,28.57.69,11.43-1.65,22.8-4,33.54-8.6a24.22,24.22,0,0,0,4.31-2.33c6.16-4.23,12.93-3.28,19.67-2.37,7.87,1.05,15.77,2,23.55,3.5,10.9,2.17,21.74,4.74,32.52,7.44,3.12.79,6,2.61,9,4Z" transform="translate(-115.3 -159.3)"/><path class="cls-1" d="M284.1,266.6a131.64,131.64,0,0,1-33.45-4c-5-1.2-9.83-3.4-14.75-5.11-1.67-.58-1.89-1.63-1.5-3.25,3.37-14,6.66-28,10-41.94q5.13-21.5,10.33-43c.74-3.08,2.77-5.19,5.18-7,1.53-1.14,2.89-.45,3.88.82,4.44,5.67,9,11.28,13.15,17.15,4.35,6.14,10.34,6.08,15,.08,5.3-6.85,11.09-13.33,16.77-19.88,1.7-2,3.8-1.6,4.54.86,1.15,3.9,2,7.92,2.74,11.92q6.69,34.53,13.29,69.07c.9,4.71,1.8,9.42,2.79,14.1.36,1.66,0,2.35-1.75,3C314.93,264.89,297.91,266.72,284.1,266.6Z" transform="translate(-115.3 -159.3)"/><path class="cls-1" d="M452.23,401.74a51.68,51.68,0,0,0-5.78-2.72c-14.66-4.73-29.63-7.31-45.09-6.07a6.84,6.84,0,0,0-3,.64,4.16,4.16,0,0,0-1.87,2.52,3.27,3.27,0,0,0,1.44,2.47,62.43,62.43,0,0,1,17.49,17.28,13.11,13.11,0,0,1,1.14,1.75c.45.93.8,1.9,1.38,3.32-1.19,0-2.09,0-3,0-16-.63-32,.3-47.54,4.33-10.13,2.63-19.95,6.61-29.67,10.57-4.94,2-9.53,5.07-14,8.07a118.05,118.05,0,0,0-29.56,28.36,16.22,16.22,0,0,0-1.08,2.07c-1.83,3.46-4.34,5.93-8.46,6.58-1.65.26-3.12,1.5-4.78,1.89a5.63,5.63,0,0,1-3.1-.61c-.94-.4-1.68-1.27-2.62-1.69-2.39-1.07-2.55-2.46-1.33-4.68,4.75-8.65,11.94-14.46,20.61-18.88,6.33-3.24,12.44-6.95,18.48-10.7,3.82-2.37,7.36-5.2,11-7.85A116.84,116.84,0,0,0,350.2,410.3c7.8-11.22,14-23.36,17.49-36.6a248.06,248.06,0,0,0,4.82-25.13c.38-2.38,1.19-3.81,3.24-4.74l14.05-6.4a4.33,4.33,0,0,0,1.2-.5c4.43-4.05,8.29-2.17,12.58.62a100.5,100.5,0,0,1,26.84,25.93c3.25,4.51,6.7,8.93,9.49,13.72,4.12,7.06,7.74,14.41,11.53,21.66A17.22,17.22,0,0,1,452.23,401.74Z" transform="translate(-115.3 -159.3)"/><path class="cls-1" d="M274.59,464.28l-7.79,12.07a20.32,20.32,0,0,1-2.72-2.51c-3.88-5.11-7.45-10.48-11.55-15.41a102.54,102.54,0,0,0-23.64-21.16c-4.61-2.93-9.31-5.7-14-8.52-8.78-5.32-18.63-7.54-28.38-10.21-10.95-3-22-2.76-33.17-2.66h-1.52a4.88,4.88,0,0,1,.53-1.43c3.72-4.47,7.31-9.08,11.28-13.31,2.47-2.63,5.59-4.63,8.3-7,.67-.6,1.38-1.86,1.18-2.55a3.88,3.88,0,0,0-2.21-2.44,30.8,30.8,0,0,0-7.53-.68c-6.88.31-13.91.07-20.57,1.51-9,1.93-17.65,5.21-26.46,7.91a10.53,10.53,0,0,1-1.06.18c1.19-3.39,2.19-6.6,3.45-9.71,4.79-11.82,10.63-23.06,18.66-33.06,6.39-7.95,13.5-15,22.94-19.29,1.32-.61,2.51-1.49,3.79-2.18,5.76-3.07,10.8-1.58,16.05,1.79,4.66,3,9.89,5.12,14.93,7.51a4.45,4.45,0,0,1,2.75,3.42c3.95,18.15,8.39,36.18,14.7,53.68,3.33,9.25,6.86,18.45,14.12,25.62,6.18,6.11,12.08,12.49,18.24,18.62a89.55,89.55,0,0,0,20.35,15.72C268.31,461.78,271.58,463,274.59,464.28Z" transform="translate(-115.3 -159.3)"/><path class="cls-1" d="M242.53,540.81v25.42c-3.25,0-6.35.09-9.43-.12-.4,0-1-1.59-1-2.45q-.08-26.31,0-52.64c0-6.08,0-6.09,6-6.54,6.79-.51,13.56-.79,20.34.58,10,2,14.32,12.35,11.82,20.74-1.54,5.17-2.6,6.32-9.22,10.66,0,.16,0,.38.14.45,6.24,4.4,7.21,11.37,8.81,18,.87,3.63,1.82,7.24,2.84,11.26-3.41,0-6.59.08-9.76-.08-.53,0-1.26-1.07-1.45-1.76-1.55-5.62-3-11.27-4.47-16.92-1.09-4.16-3.87-6.31-8.06-6.61C247,540.69,245,540.81,242.53,540.81Zm0-8.21c3.61-.2,6.9-.16,10.13-.62a8.38,8.38,0,0,0,6.94-5.61c1.93-5,.85-12.37-7-13.44a48.19,48.19,0,0,0-8.58,0,2,2,0,0,0-1.42,1.32C242.51,520.2,242.54,526.18,242.54,532.6Z" transform="translate(-115.3 -159.3)"/><path class="cls-1" d="M412.69,514.75c-5.35-.53-10.16-1.43-15-1.42-11.28,0-18.17,7.56-19.35,18.35a29.16,29.16,0,0,0,2.06,15.12,17.56,17.56,0,0,0,3.58,5.1c5.74,5.78,12.8,6.92,20.48,5.25.7-.15,1.74-1.11,1.76-1.72.15-4.68.08-9.38.08-14.36h-10V532.4H416.4c.05.67.17,1.41.17,2.15,0,8.82,0,17.63,0,26.44a2.44,2.44,0,0,1-1.68,2.76c-7.68,3.3-15.67,3.63-23.8,2.71a27,27,0,0,1-15.85-7.8c-4.65-4.48-7-10.35-7.82-16.72-1.06-8.23-.36-16.3,4-23.55a27.72,27.72,0,0,1,18.67-13.53,45.91,45.91,0,0,1,21.76.66c2.13.58,3.2,1.33,2.25,3.78A40.3,40.3,0,0,0,412.69,514.75Z" transform="translate(-115.3 -159.3)"/><path class="cls-1" d="M357.9,529.65v9.08H336.4v18.14h24v9.39h-5.27c-9,0-18,0-27,0-1.84,0-2.62-.35-2.61-2.42.08-19,0-38,.06-57.06a20.53,20.53,0,0,1,.21-2.09h33.43v9H336.4v15.91Z" transform="translate(-115.3 -159.3)"/><path class="cls-1" d="M164.24,554.29c3.86,1.2,7.4,2.56,11.07,3.33a18.44,18.44,0,0,0,6.74-.14,8.45,8.45,0,0,0,6.75-6.73c.65-3.77-.55-6.44-4.08-8.57-1.63-1-3.47-1.62-5.16-2.52A95.59,95.59,0,0,1,169.4,534c-7.41-5.24-8.52-15.69-3-23a17.54,17.54,0,0,1,11.08-6.69,33.08,33.08,0,0,1,18,1.38c1.44.5,1.91,1.23,1.42,2.73-.75,2.29-1.34,4.63-1.8,6.22-4.85-.59-9.29-1.54-13.74-1.57s-7.34,2.84-7.68,6.67a6.53,6.53,0,0,0,3.7,6.67c3.56,1.95,7.21,3.79,10.91,5.47,5.55,2.52,9.68,6.35,11,12.42,1.59,7.5-1,15.23-8.32,19.45-8.06,4.63-16.18,3.64-24.48,1.54a9.45,9.45,0,0,1-3.35-1.88,2.35,2.35,0,0,1-.66-1.93C162.94,559.05,163.64,556.63,164.24,554.29Z" transform="translate(-115.3 -159.3)"/><path class="cls-1" d="M311.5,514.8c-4.54-.66-8.69-1.64-12.88-1.77-5.05-.16-8.29,2.86-8.51,7a6.11,6.11,0,0,0,3,6,87.91,87.91,0,0,0,8.64,4.68c4.54,2.07,8.91,4.13,11.8,8.6,4.76,7.36,2.59,18.58-4.65,23.54-8.26,5.65-17.05,5-26,2.55a10,10,0,0,1-3.36-1.85,2.31,2.31,0,0,1-.69-1.92c.51-2.47,1.2-4.89,1.91-7.64a20,20,0,0,1,3.36,1.4c3.86,2.5,8.18,2.62,12.53,2.5a9.15,9.15,0,0,0,8.59-6.75c.95-3.88-.87-7.29-5.16-9.52-3.67-1.92-7.48-3.58-11.16-5.5-8.41-4.38-10.9-11.52-8.89-19.38a15.09,15.09,0,0,1,8.15-10.33c8.44-4,16.88-3.21,25.63.13C313,509.59,312.15,512.48,311.5,514.8Z" transform="translate(-115.3 -159.3)"/><path class="cls-1" d="M228.27,346.5c9.5,4.3,18.54,8.3,27.48,12.51,3.57,1.69,6.95,3.81,10.35,5.84a6.43,6.43,0,0,1,2.43,2.31,37.89,37.89,0,0,1,1.82,5,29.29,29.29,0,0,1-4.3,1.27,81.1,81.1,0,0,1-25.5-.68A92.29,92.29,0,0,1,229.74,370a3.36,3.36,0,0,1-2-2C226.38,361,226.76,354.08,228.27,346.5Z" transform="translate(-115.3 -159.3)"/><path class="cls-1" d="M340.82,349.07c.67,6.44,1.27,12.55,0,18.67a3,3,0,0,1-1.62,1.78,65,65,0,0,1-29,5.37c-3.28-.13-6.52-1-9.8-1.37-2.17-.27-2.45-1.54-2.06-3.34a8.15,8.15,0,0,1,5.15-5.84c5.33-2.31,10.71-4.5,16.07-6.72q9.27-3.84,18.54-7.63C338.9,349.67,339.71,349.44,340.82,349.07Z" transform="translate(-115.3 -159.3)"/><path class="cls-1" d="M209.14,504.72h10.37v61.52c-3,0-6.06,0-9.07-.06-.45,0-.88-.78-1.27-1.23-.09-.1,0-.34,0-.51Z" transform="translate(-115.3 -159.3)"/></svg>