<?xml version="1.0" encoding="utf-8"?>
<!-- Generator: Adobe Illustrator 24.0.2, SVG Export Plug-In . SVG Version: 6.00 Build 0)  -->
<svg version="1.1" id="Capa_1" xmlns="http://www.w3.org/2000/svg" xmlns:xlink="http://www.w3.org/1999/xlink" x="0px" y="0px"
	 viewBox="0 0 700 700" style="enable-background:new 0 0 700 700;" xml:space="preserve">
<style type="text/css">
	.st0{fill:none;}
</style>
<g>
	<path class="st0" d="M378.79,146.42c0.4,0.36,0.74,0.88,0.95,1.59c1.15,3.9,2,7.92,2.74,11.92c4.46,23.02,8.89,46.04,13.29,69.07
		c0.9,4.71,1.8,9.42,2.79,14.1c0.36,1.66,0,2.35-1.75,3c-15.39,5.47-32.41,7.3-46.22,7.18c-11.28,0.1-22.52-1.24-33.45-4
		c-5-1.2-9.83-3.4-14.75-5.11c-1.67-0.58-1.89-1.63-1.5-3.25c3.37-14,6.66-28,10-41.94c3.42-14.33,6.86-28.67,10.33-43
		c0.74-3.08,2.77-5.19,5.18-7c1.53-1.14,2.89-0.45,3.88,0.82c4.44,5.67,9,11.28,13.15,17.15c4.35,6.14,10.34,6.08,15,0.08
		c5.3-6.85,11.09-13.33,16.77-19.88c0.26-0.3,0.53-0.54,0.8-0.73H179.7v406.94h60.16c-2.28-0.32-4.57-0.81-6.88-1.39
		c-1.23-0.39-2.37-1.03-3.35-1.88c-0.5-0.51-0.75-1.22-0.66-1.93c0.46-2.43,1.16-4.85,1.76-7.19c3.86,1.2,7.4,2.56,11.07,3.33
		c2.24,0.37,4.52,0.32,6.74-0.14c3.42-0.64,6.1-3.31,6.75-6.73c0.65-3.77-0.55-6.44-4.08-8.57c-1.63-1-3.47-1.62-5.16-2.52
		c-3.5-1.68-6.89-3.57-10.16-5.66c-7.41-5.24-8.52-15.69-3-23c2.71-3.56,6.67-5.95,11.08-6.69c6.01-1.22,12.24-0.74,18,1.38
		c1.44,0.5,1.91,1.23,1.42,2.73c-0.75,2.29-1.34,4.63-1.8,6.22c-4.85-0.59-9.29-1.54-13.74-1.57s-7.34,2.84-7.68,6.67
		c-0.33,2.79,1.16,5.47,3.7,6.67c3.56,1.95,7.21,3.79,10.91,5.47c5.55,2.52,9.68,6.35,11,12.42c1.59,7.5-1,15.23-8.32,19.45
		c-2.72,1.56-5.45,2.47-8.19,2.93h105.88c-1.91-0.32-3.83-0.75-5.76-1.28c-1.23-0.39-2.37-1.02-3.36-1.85
		c-0.52-0.5-0.77-1.21-0.69-1.92c0.51-2.47,1.2-4.89,1.91-7.64c1.16,0.36,2.28,0.83,3.36,1.4c3.86,2.5,8.18,2.62,12.53,2.5
		c4.04-0.11,7.53-2.85,8.59-6.75c0.95-3.88-0.87-7.29-5.16-9.52c-3.67-1.92-7.48-3.58-11.16-5.5c-8.41-4.38-10.9-11.52-8.89-19.38
		c0.99-4.51,4-8.31,8.15-10.33c8.44-4,16.88-3.21,25.63,0.13c-0.81,3.05-1.66,5.94-2.31,8.26c-4.54-0.66-8.69-1.64-12.88-1.77
		c-5.05-0.16-8.29,2.86-8.51,7c-0.29,2.42,0.89,4.78,3,6c2.79,1.72,5.67,3.28,8.64,4.68c4.54,2.07,8.91,4.13,11.8,8.6
		c4.76,7.36,2.59,18.58-4.65,23.54c-2.94,2.01-5.95,3.21-9.01,3.83h93.48c-0.76-0.06-1.52-0.13-2.28-0.22
		c-6.01-0.75-11.59-3.5-15.85-7.8c-4.65-4.48-7-10.35-7.82-16.72c-1.06-8.23-0.36-16.3,4-23.55c3.96-7.01,10.78-11.95,18.67-13.53
		c7.2-1.53,14.66-1.3,21.76,0.66c2.13,0.58,3.2,1.33,2.25,3.78c-0.6,1.78-1.07,3.6-1.41,5.45c-5.35-0.53-10.16-1.43-15-1.42
		c-11.28,0-18.17,7.56-19.35,18.35c-0.67,5.13,0.04,10.35,2.06,15.12c0.88,1.9,2.09,3.63,3.58,5.1c5.74,5.78,12.8,6.92,20.48,5.25
		c0.7-0.15,1.74-1.11,1.76-1.72c0.15-4.68,0.08-9.38,0.08-14.36h-10v-8.67h20.1c0.05,0.67,0.17,1.41,0.17,2.15
		c0,8.82,0,17.63,0,26.44c0.22,1.21-0.5,2.4-1.68,2.76c-3.82,1.64-7.71,2.55-11.66,2.93h49.99V146.42H378.79z M217.77,292.09
		c2.81-1.73,5.78-3.19,8.88-4.34c10-3.69,20.57-5,31.06-6.46c9.93-1.4,19.88-2.71,29.83-3.94c1.26-0.16,2.54,0.07,3.67,0.65
		c14.15,8.14,29.7,13.57,45.85,16c9.6,1.48,19.12,2.05,28.57,0.69c11.43-1.65,22.8-4,33.54-8.6c1.51-0.63,2.96-1.41,4.31-2.33
		c6.16-4.23,12.93-3.28,19.67-2.37c7.87,1.05,15.77,2,23.55,3.5c10.9,2.17,21.74,4.74,32.52,7.44c3.12,0.79,6,2.61,9,4l-0.16,0.89
		c-3.52,1.18-7,2.46-10.59,3.53c-12.57,3.78-25.31,7.05-37.7,11.34c-10.51,3.64-21.24,6.08-32,8.45c-22.67,5-45.58,5.94-68.64,4.34
		c-8.53-0.58-17.09-1.18-25.52-2.52c-17-2.69-34-5.44-50.87-9.07c-9-1.95-17.75-5.59-26.48-8.82c-6.1-2.25-12-5.07-18-7.69
		C215.78,295.69,215.44,293.53,217.77,292.09z M407.31,354.42c-0.27,0.79-0.86,1.44-1.62,1.78c-9.13,3.99-19.05,5.83-29,5.37
		c-3.28-0.13-6.52-1-9.8-1.37c-2.17-0.27-2.45-1.54-2.06-3.34c0.62-2.69,2.55-4.89,5.15-5.84c5.33-2.31,10.71-4.5,16.07-6.72
		c6.18-2.56,12.36-5.1,18.54-7.63c0.8-0.32,1.61-0.55,2.72-0.92C407.98,342.19,408.58,348.3,407.31,354.42z M336.84,358.84
		c-1.4,0.53-2.84,0.96-4.3,1.27c-8.48,1.12-17.09,0.89-25.5-0.68c-3.66-0.7-7.27-1.62-10.81-2.75c-0.93-0.34-1.66-1.07-2-2
		c-1.36-7-0.98-13.92,0.53-21.5c9.5,4.3,18.54,8.3,27.48,12.51c3.57,1.69,6.95,3.81,10.35,5.84c1,0.54,1.84,1.34,2.43,2.31
		C335.74,355.46,336.35,357.13,336.84,358.84z M286,552.92c-3,0-6.06,0-9.07-0.06c-0.45,0-0.88-0.78-1.27-1.23
		c-0.09-0.1,0-0.34,0-0.51l-0.03-59.72H286V552.92z M281.38,415.43c-8.78-5.32-18.63-7.54-28.38-10.21c-10.95-3-22-2.76-33.17-2.66
		h-1.52c0.1-0.5,0.28-0.98,0.53-1.43c3.72-4.47,7.31-9.08,11.28-13.31c2.47-2.63,5.59-4.63,8.3-7c0.67-0.6,1.38-1.86,1.18-2.55
		c-0.34-1.1-1.15-1.99-2.21-2.44c-2.47-0.54-5-0.76-7.53-0.68c-6.88,0.31-13.91,0.07-20.57,1.51c-9,1.93-17.65,5.21-26.46,7.91
		c-0.35,0.08-0.7,0.14-1.06,0.18c1.19-3.39,2.19-6.6,3.45-9.71c4.79-11.82,10.63-23.06,18.66-33.06c6.39-7.95,13.5-15,22.94-19.29
		c1.32-0.61,2.51-1.49,3.79-2.18c5.76-3.07,10.8-1.58,16.05,1.79c4.66,3,9.89,5.12,14.93,7.51c1.45,0.58,2.5,1.88,2.75,3.42
		c3.95,18.15,8.39,36.18,14.7,53.68c3.33,9.25,6.86,18.45,14.12,25.62c6.18,6.11,12.08,12.49,18.24,18.62
		c5.99,6.19,12.85,11.49,20.35,15.72c3.05,1.59,6.32,2.81,9.33,4.09l-7.79,12.07c-0.98-0.75-1.89-1.59-2.72-2.51
		c-3.88-5.11-7.45-10.48-11.55-15.41c-6.73-8.24-14.71-15.38-23.64-21.16C290.77,421.02,286.07,418.25,281.38,415.43z
		 M329.56,552.77c-0.53,0-1.26-1.07-1.45-1.76c-1.55-5.62-3-11.27-4.47-16.92c-1.09-4.16-3.87-6.31-8.06-6.61
		c-2.09-0.11-4.09,0.01-6.56,0.01v25.42c-3.25,0-6.35,0.09-9.43-0.12c-0.4,0-1-1.59-1-2.45c-0.05-17.54-0.05-35.09,0-52.64
		c0-6.08,0-6.09,6-6.54c6.79-0.51,13.56-0.79,20.34,0.58c10,2,14.32,12.35,11.82,20.74c-1.54,5.17-2.6,6.32-9.22,10.66
		c0,0.16,0,0.38,0.14,0.45c6.24,4.4,7.21,11.37,8.81,18c0.87,3.63,1.82,7.24,2.84,11.26C335.91,552.85,332.73,552.93,329.56,552.77z
		 M426.89,552.94h-5.27c-9,0-18,0-27,0c-1.84,0-2.62-0.35-2.61-2.42c0.08-19,0-38,0.06-57.06c0.03-0.7,0.1-1.4,0.21-2.09h33.43v9
		h-22.82v15.91l21.5,0.05v9.08h-21.5v18.14h24V552.94z M512.94,385.7c-14.66-4.73-29.63-7.31-45.09-6.07c-1.04-0.02-2.06,0.2-3,0.64
		c-0.93,0.56-1.6,1.47-1.87,2.52c0.08,1,0.61,1.91,1.44,2.47c6.92,4.54,12.86,10.42,17.49,17.28c0.43,0.55,0.81,1.14,1.14,1.75
		c0.45,0.93,0.8,1.9,1.38,3.32c-1.19,0-2.09,0-3,0c-16-0.63-32,0.3-47.54,4.33c-10.13,2.63-19.95,6.61-29.67,10.57
		c-4.94,2-9.53,5.07-14,8.07c-11.43,7.66-21.43,17.26-29.56,28.36c-0.41,0.66-0.77,1.35-1.08,2.07c-1.83,3.46-4.34,5.93-8.46,6.58
		c-1.65,0.26-3.12,1.5-4.78,1.89c-1.07,0.1-2.15-0.11-3.1-0.61c-0.94-0.4-1.68-1.27-2.62-1.69c-2.39-1.07-2.55-2.46-1.33-4.68
		c4.75-8.65,11.94-14.46,20.61-18.88c6.33-3.24,12.44-6.95,18.48-10.7c3.82-2.37,7.36-5.2,11-7.85
		c10.62-7.76,19.85-17.26,27.31-28.09c7.8-11.22,14-23.36,17.49-36.6c2.04-8.29,3.65-16.68,4.82-25.13
		c0.38-2.38,1.19-3.81,3.24-4.74l14.05-6.4c0.42-0.11,0.83-0.27,1.2-0.5c4.43-4.05,8.29-2.17,12.58,0.62
		c10.49,6.89,19.59,15.69,26.84,25.93c3.25,4.51,6.7,8.93,9.49,13.72c4.12,7.06,7.74,14.41,11.53,21.66
		c0.35,0.94,0.61,1.9,0.79,2.88C516.85,387.39,514.92,386.48,512.94,385.7z"/>
	<path class="st0" d="M319.09,499.61c-2.85-0.26-5.73-0.26-8.58,0c-0.67,0.17-1.21,0.66-1.42,1.32c-0.09,5.95-0.06,11.93-0.06,18.35
		c3.61-0.2,6.89-0.16,10.12-0.62c3.2-0.38,5.9-2.56,6.94-5.61C328.02,508.05,326.94,500.68,319.09,499.61z"/>
	<path d="M218.26,296.78c6,2.62,11.9,5.44,18,7.69c8.73,3.23,17.48,6.87,26.48,8.82c16.87,3.63,33.87,6.38,50.87,9.07
		c8.43,1.34,16.99,1.94,25.52,2.52c23.06,1.6,45.97,0.66,68.64-4.34c10.76-2.37,21.49-4.81,32-8.45
		c12.39-4.29,25.13-7.56,37.7-11.34c3.59-1.07,7.07-2.35,10.59-3.53l0.16-0.89c-3-1.39-5.88-3.21-9-4
		c-10.78-2.7-21.62-5.27-32.52-7.44c-7.78-1.5-15.68-2.45-23.55-3.5c-6.74-0.91-13.51-1.86-19.67,2.37c-1.35,0.92-2.8,1.7-4.31,2.33
		c-10.74,4.6-22.11,6.95-33.54,8.6c-9.45,1.36-18.97,0.79-28.57-0.69c-16.15-2.43-31.7-7.86-45.85-16
		c-1.13-0.58-2.41-0.81-3.67-0.65c-9.95,1.23-19.9,2.54-29.83,3.94c-10.49,1.46-21.06,2.77-31.06,6.46
		c-3.1,1.15-6.07,2.61-8.88,4.34C215.44,293.53,215.78,295.69,218.26,296.78z"/>
	<path d="M358.43,167.03c-4.66,6-10.65,6.06-15-0.08c-4.15-5.87-8.71-11.48-13.15-17.15c-0.99-1.27-2.35-1.96-3.88-0.82
		c-2.41,1.81-4.44,3.92-5.18,7c-3.47,14.33-6.91,28.67-10.33,43c-3.34,13.94-6.63,27.94-10,41.94c-0.39,1.62-0.17,2.67,1.5,3.25
		c4.92,1.71,9.75,3.91,14.75,5.11c10.93,2.76,22.17,4.1,33.45,4c13.81,0.12,30.83-1.71,46.22-7.18c1.75-0.65,2.11-1.34,1.75-3
		c-0.99-4.68-1.89-9.39-2.79-14.1c-4.4-23.03-8.83-46.05-13.29-69.07c-0.74-4-1.59-8.02-2.74-11.92c-0.21-0.71-0.55-1.23-0.95-1.59
		H376c-0.27,0.19-0.54,0.42-0.8,0.73C369.52,153.7,363.73,160.18,358.43,167.03z"/>
	<path d="M506.4,363.88c-2.79-4.79-6.24-9.21-9.49-13.72c-7.25-10.24-16.35-19.04-26.84-25.93c-4.29-2.79-8.15-4.67-12.58-0.62
		c-0.37,0.23-0.78,0.39-1.2,0.5l-14.05,6.4c-2.05,0.93-2.86,2.36-3.24,4.74c-1.17,8.45-2.78,16.84-4.82,25.13
		c-3.49,13.24-9.69,25.38-17.49,36.6c-7.46,10.83-16.69,20.33-27.31,28.09c-3.64,2.65-7.18,5.48-11,7.85
		c-6.04,3.75-12.15,7.46-18.48,10.7c-8.67,4.42-15.86,10.23-20.61,18.88c-1.22,2.22-1.06,3.61,1.33,4.68
		c0.94,0.42,1.68,1.29,2.62,1.69c0.95,0.5,2.03,0.71,3.1,0.61c1.66-0.39,3.13-1.63,4.78-1.89c4.12-0.65,6.63-3.12,8.46-6.58
		c0.31-0.72,0.67-1.41,1.08-2.07c8.13-11.1,18.13-20.7,29.56-28.36c4.47-3,9.06-6.07,14-8.07c9.72-3.96,19.54-7.94,29.67-10.57
		c15.54-4.03,31.54-4.96,47.54-4.33c0.91,0,1.81,0,3,0c-0.58-1.42-0.93-2.39-1.38-3.32c-0.33-0.61-0.71-1.2-1.14-1.75
		c-4.63-6.86-10.57-12.74-17.49-17.28c-0.83-0.56-1.36-1.47-1.44-2.47c0.27-1.05,0.94-1.96,1.87-2.52c0.94-0.44,1.96-0.66,3-0.64
		c15.46-1.24,30.43,1.34,45.09,6.07c1.98,0.79,3.91,1.7,5.78,2.72c-0.18-0.98-0.44-1.94-0.79-2.88
		C514.14,378.29,510.52,370.94,506.4,363.88z"/>
	<path d="M319.02,445.11c4.1,4.93,7.67,10.3,11.55,15.41c0.83,0.92,1.74,1.76,2.72,2.51l7.79-12.07c-3.01-1.28-6.28-2.5-9.33-4.09
		c-7.5-4.23-14.36-9.53-20.35-15.72c-6.16-6.13-12.06-12.51-18.24-18.62c-7.26-7.17-10.79-16.37-14.12-25.62
		c-6.31-17.5-10.75-35.53-14.7-53.68c-0.25-1.54-1.3-2.84-2.75-3.42c-5.04-2.39-10.27-4.51-14.93-7.51
		c-5.25-3.37-10.29-4.86-16.05-1.79c-1.28,0.69-2.47,1.57-3.79,2.18c-9.44,4.29-16.55,11.34-22.94,19.29
		c-8.03,10-13.87,21.24-18.66,33.06c-1.26,3.11-2.26,6.32-3.45,9.71c0.36-0.04,0.71-0.1,1.06-0.18c8.81-2.7,17.46-5.98,26.46-7.91
		c6.66-1.44,13.69-1.2,20.57-1.51c2.53-0.08,5.06,0.14,7.53,0.68c1.06,0.45,1.87,1.34,2.21,2.44c0.2,0.69-0.51,1.95-1.18,2.55
		c-2.71,2.37-5.83,4.37-8.3,7c-3.97,4.23-7.56,8.84-11.28,13.31c-0.25,0.45-0.43,0.93-0.53,1.43h1.52
		c11.17-0.1,22.22-0.34,33.17,2.66c9.75,2.67,19.6,4.89,28.38,10.21c4.69,2.82,9.39,5.59,14,8.52
		C304.31,429.73,312.29,436.87,319.02,445.11z"/>
	<path d="M327.67,523.59c-0.14-0.07-0.14-0.29-0.14-0.45c6.62-4.34,7.68-5.49,9.22-10.66c2.5-8.39-1.82-18.74-11.82-20.74
		c-6.78-1.37-13.55-1.09-20.34-0.58c-6,0.45-6,0.46-6,6.54c-0.05,17.55-0.05,35.1,0,52.64c0,0.86,0.6,2.45,1,2.45
		c3.08,0.21,6.18,0.12,9.43,0.12v-25.42c2.47,0,4.47-0.12,6.56-0.01c4.19,0.3,6.97,2.45,8.06,6.61c1.47,5.65,2.92,11.3,4.47,16.92
		c0.19,0.69,0.92,1.76,1.45,1.76c3.17,0.16,6.35,0.08,9.76,0.08c-1.02-4.02-1.97-7.63-2.84-11.26
		C334.88,534.96,333.91,527.99,327.67,523.59z M326.09,513.05c-1.04,3.05-3.74,5.23-6.94,5.61c-3.23,0.46-6.51,0.42-10.12,0.62
		c0-6.42-0.03-12.4,0.06-18.35c0.21-0.66,0.75-1.15,1.42-1.32c2.85-0.26,5.73-0.26,8.58,0
		C326.94,500.68,328.02,508.05,326.09,513.05z"/>
	<path d="M483.06,547.67c0-8.81,0-17.62,0-26.44c0-0.74-0.12-1.48-0.17-2.15h-20.1v8.67h10c0,4.98,0.07,9.68-0.08,14.36
		c-0.02,0.61-1.06,1.57-1.76,1.72c-7.68,1.67-14.74,0.53-20.48-5.25c-1.49-1.47-2.7-3.2-3.58-5.1c-2.02-4.77-2.73-9.99-2.06-15.12
		c1.18-10.79,8.07-18.35,19.35-18.35c4.84-0.01,9.65,0.89,15,1.42c0.34-1.85,0.81-3.67,1.41-5.45c0.95-2.45-0.12-3.2-2.25-3.78
		c-7.1-1.96-14.56-2.19-21.76-0.66c-7.89,1.59-14.71,6.52-18.67,13.53c-4.36,7.25-5.06,15.32-4,23.55
		c0.82,6.37,3.17,12.24,7.82,16.72c4.26,4.3,9.84,7.05,15.85,7.8c0.76,0.09,1.52,0.16,2.28,0.22h9.86
		c3.95-0.38,7.85-1.29,11.66-2.93C482.56,550.06,483.28,548.88,483.06,547.67z"/>
	<path d="M402.89,525.41h21.5v-9.08l-21.5-0.05v-15.91h22.82v-9h-33.43c-0.11,0.69-0.18,1.39-0.21,2.09
		c-0.06,19.06,0.02,38.06-0.06,57.06c-0.01,2.07,0.77,2.42,2.61,2.42c9,0,18,0,27,0h5.27v-9.39h-24V525.41z"/>
	<path d="M265.78,530.98c-1.32-6.07-5.45-9.9-11-12.42c-3.7-1.68-7.35-3.52-10.91-5.47c-2.54-1.2-4.03-3.88-3.7-6.67
		c0.34-3.83,3.23-6.7,7.68-6.67s8.89,0.98,13.74,1.57c0.46-1.59,1.05-3.93,1.8-6.22c0.49-1.5,0.02-2.23-1.42-2.73
		c-5.76-2.12-11.99-2.6-18-1.38c-4.41,0.74-8.37,3.13-11.08,6.69c-5.52,7.31-4.41,17.76,3,23c3.27,2.09,6.66,3.98,10.16,5.66
		c1.69,0.9,3.53,1.52,5.16,2.52c3.53,2.13,4.73,4.8,4.08,8.57c-0.65,3.42-3.33,6.09-6.75,6.73c-2.22,0.46-4.5,0.51-6.74,0.14
		c-3.67-0.77-7.21-2.13-11.07-3.33c-0.6,2.34-1.3,4.76-1.76,7.19c-0.09,0.71,0.16,1.42,0.66,1.93c0.98,0.85,2.12,1.49,3.35,1.88
		c2.31,0.58,4.6,1.07,6.88,1.39h9.41c2.74-0.46,5.47-1.37,8.19-2.93C264.78,546.21,267.37,538.48,265.78,530.98z"/>
	<path d="M380.04,525.99c-2.89-4.47-7.26-6.53-11.8-8.6c-2.97-1.4-5.85-2.96-8.64-4.68c-2.11-1.22-3.29-3.58-3-6
		c0.22-4.14,3.46-7.16,8.51-7c4.19,0.13,8.34,1.11,12.88,1.77c0.65-2.32,1.5-5.21,2.31-8.26c-8.75-3.34-17.19-4.13-25.63-0.13
		c-4.15,2.02-7.16,5.82-8.15,10.33c-2.01,7.86,0.48,15,8.89,19.38c3.68,1.92,7.49,3.58,11.16,5.5c4.29,2.23,6.11,5.64,5.16,9.52
		c-1.06,3.9-4.55,6.64-8.59,6.75c-4.35,0.12-8.67,0-12.53-2.5c-1.08-0.57-2.2-1.04-3.36-1.4c-0.71,2.75-1.4,5.17-1.91,7.64
		c-0.08,0.71,0.17,1.42,0.69,1.92c0.99,0.83,2.13,1.46,3.36,1.85c1.93,0.53,3.85,0.96,5.76,1.28h11.23
		c3.06-0.62,6.07-1.82,9.01-3.83C382.63,544.57,384.8,533.35,380.04,525.99z"/>
	<path d="M332.59,351.53c-3.4-2.03-6.78-4.15-10.35-5.84c-8.94-4.21-17.98-8.21-27.48-12.51c-1.51,7.58-1.89,14.5-0.53,21.5
		c0.34,0.93,1.07,1.66,2,2c3.54,1.13,7.15,2.05,10.81,2.75c8.41,1.57,17.02,1.8,25.5,0.68c1.46-0.31,2.9-0.74,4.3-1.27
		c-0.49-1.71-1.1-3.38-1.82-5C334.43,352.87,333.59,352.07,332.59,351.53z"/>
	<path d="M404.59,336.67c-6.18,2.53-12.36,5.07-18.54,7.63c-5.36,2.22-10.74,4.41-16.07,6.72c-2.6,0.95-4.53,3.15-5.15,5.84
		c-0.39,1.8-0.11,3.07,2.06,3.34c3.28,0.37,6.52,1.24,9.8,1.37c9.95,0.46,19.87-1.38,29-5.37c0.76-0.34,1.35-0.99,1.62-1.78
		c1.27-6.12,0.67-12.23,0-18.67C406.2,336.12,405.39,336.35,404.59,336.67z"/>
	<path d="M275.66,551.12c0,0.17-0.09,0.41,0,0.51c0.39,0.45,0.82,1.23,1.27,1.23c3.01,0.06,6.07,0.06,9.07,0.06V491.4h-10.37
		L275.66,551.12z"/>
</g>
</svg>
